PathFileType	4	(X/Y/Z)	/Users/itak/Documents/Research/Walk-IL/dataset/trc/00437_00167.trc
DataRate	CameraRate	NumFrames	NumMarkers	Units	OrigDataRate	OrigDataStartFrame	OrigNumFrames
100.000000	100.000000	4	53	mm	100.000000	69	553
Frame#	Time	RPSI			LPSI			L3			STRN			T10			C7			CLAV			RBAK			LBAK			LSHO			LUPA			LAEL			LAOL			LWTS			LWPS			LFRA			LIFD			LHPS			LHTS			RSHO			RUPA			RAEL			RAOL			RWTS			RWPS			RFRA			RIFD			RHTS			RHPS			RBHD			LFHD			RFHD			LBHD			LHIP			RHIP			RASI			LASI			LKNE			LTHI			LANK			LTIP			LTOE			LMT1			LMT5			LHEE			RKNE			RTHI			RANK			RTIP			RTOE			RMT1			RMT5			RHEE			
		X1	Y1	Z1	X2	Y2	Z2	X3	Y3	Z3	X4	Y4	Z4	X5	Y5	Z5	X6	Y6	Z6	X7	Y7	Z7	X8	Y8	Z8	X9	Y9	Z9	X10	Y10	Z10	X11	Y11	Z11	X12	Y12	Z12	X13	Y13	Z13	X14	Y14	Z14	X15	Y15	Z15	X16	Y16	Z16	X17	Y17	Z17	X18	Y18	Z18	X19	Y19	Z19	X20	Y20	Z20	X21	Y21	Z21	X22	Y22	Z22	X23	Y23	Z23	X24	Y24	Z24	X25	Y25	Z25	X26	Y26	Z26	X27	Y27	Z27	X28	Y28	Z28	X29	Y29	Z29	X30	Y30	Z30	X31	Y31	Z31	X32	Y32	Z32	X33	Y33	Z33	X34	Y34	Z34	X35	Y35	Z35	X36	Y36	Z36	X37	Y37	Z37	X38	Y38	Z38	X39	Y39	Z39	X40	Y40	Z40	X41	Y41	Z41	X42	Y42	Z42	X43	Y43	Z43	X44	Y44	Z44	X45	Y45	Z45	X46	Y46	Z46	X47	Y47	Z47	X48	Y48	Z48	X49	Y49	Z49	X50	Y50	Z50	X51	Y51	Z51	X52	Y52	Z52	X53	Y53	Z53	

70	0.6900000000000001	-1165.734497070312	970.2451782226562	-467.39794921875	-1088.892333984375	968.7504272460938	-586.083984375	-1126.614501953125	1060.3310546875	-508.5648193359375	-889.6446533203125	1256.556030273438	-387.0031433105469	-1144.949584960938	1183.16796875	-523.54541015625	-1094.1201171875	1451.298828125	-482.2062377929688	-921.3497924804688	1369.633911132812	-409.1614990234375	-1192.352783203125	1331.998168945312	-426.0443115234375	-1077.14306640625	1404.932983398438	-584.3316040039062	-948.3097534179688	1426.068969726562	-607.0984497070312	-912.9898681640625	1309.51318359375	-702.0576171875	-876.8875732421875	1095.663208007812	-728.0150756835938	-978.386962890625	1079.25439453125	-710.9441528320312	-823.5661010742188	895.1486206054688	-651.2214965820312	-835.7907104492188	879.1951293945312	-722.9403076171875	-851.9971923828125	1008.763122558594	-727.3870239257812	-817.0977783203125	726.008544921875	-651.8948364257812	-830.2857055664062	797.889892578125	-718.580322265625	-804.5689086914062	805.34033203125	-651.5911865234375	-1102.857543945312	1422.79248046875	-306.6499328613281	-1151.053833007812	1361.548706054688	-244.6643829345703	-1162.952880859375	1071.877197265625	-192.7814025878906	-1200.737060546875	1055.424072265625	-246.6914825439453	-1044.508422851562	875.3820190429688	-209.5644073486328	-1124.025268554688	855.763427734375	-175.89306640625	-1160.100708007812	1013.044860839844	-184.0956420898438	-1039.628662109375	715.9505615234375	-206.7645416259766	-1030.089111328125	775.4536743164062	-195.6974639892578	-1102.717651367188	770.0029907226562	-174.1304931640625	-1076.8857421875	1644.293701171875	-379.8536987304688	-883.1463012695312	1676.543090820312	-446.7887573242188	-949.925048828125	1674.487182617188	-333.9076843261719	-1000.558166503906	1650.240966796875	-540.9909057617188	-915.0070190429688	859.2575073242188	-607.0827026367188	-1152.805419921875	863.1318969726562	-287.1979675292969	-1026.912963867188	900.7078857421875	-282.0694274902344	-872.123291015625	897.4912719726562	-488.1343994140625	-941.522705078125	435.6520080566406	-558.1767578125	-907.1135864257812	588.2755126953125	-571.052490234375	-1045.5849609375	33.62519836425781	-596.8818359375	-960.2315063476562	281.1243591308594	-570.8646240234375	-901.6627197265625	42.88521194458008	-411.5848693847656	-976.9153442382812	50.56541061401367	-432.9320373535156	-911.8175659179688	43.73805618286133	-526.820068359375	-1118.520629882812	38.1290397644043	-587.8696899414062	-1128.752319335938	465.6015319824219	-312.2193298339844	-1125.466186523438	725.2913818359375	-260.4449462890625	-1187.458251953125	43.10011291503906	-351.6751708984375	-1148.318603515625	320.3796081542969	-307.9080505371094	-980.0211181640625	48.56727600097656	-286.7335205078125	-1016.440124511719	54.82350921630859	-347.8619384765625	-1085.050048828125	47.30240249633789	-263.5461730957031	-1222.321533203125	35.83269500732422	-424.7385559082031	
71	0.7000000000000001	-1165.52978515625	970.3182983398438	-467.246337890625	-1088.624633789062	968.7882080078125	-585.8674926757812	-1126.23779296875	1060.447875976562	-508.4017944335938	-889.1064453125	1256.389892578125	-386.7428588867188	-1144.463500976562	1183.300537109375	-523.3828125	-1093.356323242188	1451.366088867188	-481.9830017089844	-920.6807250976562	1369.51806640625	-408.9015197753906	-1191.710327148438	1332.139892578125	-425.8607482910156	-1076.388305664062	1405.008666992188	-584.1021728515625	-947.5476684570312	1426.031982421875	-606.777099609375	-912.1577758789062	1309.495239257812	-701.7418212890625	-876.03125	1095.702758789062	-727.808837890625	-977.435546875	1079.187377929688	-710.8321533203125	-822.6814575195312	895.1759033203125	-651.05517578125	-834.8516235351562	879.2627563476562	-722.7506103515625	-851.0629272460938	1008.798706054688	-727.177978515625	-816.046630859375	726.0498046875	-651.7355346679688	-829.2256469726562	797.9317016601562	-718.39501953125	-803.6481323242188	805.38134765625	-651.393798828125	-1102.134765625	1422.8134765625	-306.4374694824219	-1150.335083007812	1361.568603515625	-244.4327239990234	-1161.9462890625	1071.867065429688	-192.5174255371094	-1199.787963867188	1055.309448242188	-246.3383636474609	-1042.974731445312	875.728271484375	-209.3597412109375	-1122.415649414062	855.8660888671875	-175.614990234375	-1158.955444335938	1013.038635253906	-183.8002777099609	-1037.619995117188	716.3136596679688	-206.4858551025391	-1028.230590820312	775.8245849609375	-195.4840850830078	-1100.854370117188	770.1690673828125	-173.8174896240234	-1076.12939453125	1644.260131835938	-379.6016845703125	-882.3005981445312	1676.573364257812	-446.5183410644531	-949.211669921875	1674.485107421875	-333.6362915039062	-999.7271118164062	1650.195434570312	-540.7538452148438	-914.7586059570312	859.2144165039062	-606.8405151367188	-1152.666625976562	863.1474609375	-287.0726318359375	-1026.88720703125	900.572021484375	-281.9837341308594	-871.940673828125	897.3719482421875	-488.0192565917969	-941.3394775390625	435.6264343261719	-558.091796875	-906.8744506835938	588.2274169921875	-570.840087890625	-1045.548461914062	33.65140533447266	-596.8624267578125	-960.1752319335938	281.0418701171875	-570.791015625	-901.6688842773438	42.86970901489258	-411.5634155273438	-976.9183959960938	50.56226348876953	-432.92041015625	-911.8112182617188	43.74921417236328	-526.81591796875	-1118.511962890625	38.16704940795898	-587.8524780273438	-1128.7978515625	465.6087036132812	-312.2032165527344	-1125.396362304688	725.3075561523438	-260.3501281738281	-1187.454467773438	43.09136581420898	-351.6744995117188	-1148.34716796875	320.3881530761719	-307.9056701660156	-980.0206298828125	48.56350326538086	-286.7304077148438	-1016.438171386719	54.82626724243164	-347.8379516601562	-1085.05908203125	47.29611206054688	-263.5342407226562	-1222.32568359375	35.84180450439453	-424.7382202148438	
72	0.71	-1165.352294921875	970.3734130859375	-467.099365234375	-1088.369506835938	968.8003540039062	-585.6414794921875	-1125.887329101562	1060.552978515625	-508.2441101074219	-888.6063842773438	1256.224975585938	-386.4828796386719	-1144.0048828125	1183.428588867188	-523.2233276367188	-1092.625854492188	1451.427490234375	-481.7603454589844	-920.0406494140625	1369.401489257812	-408.6479797363281	-1191.101684570312	1332.274780273438	-425.6783447265625	-1075.666015625	1405.078247070312	-583.8772583007812	-946.8118286132812	1425.99169921875	-606.4540405273438	-911.3409423828125	1309.466796875	-701.4151000976562	-875.1812133789062	1095.728881835938	-727.5678100585938	-976.4840087890625	1079.103271484375	-710.70166015625	-821.8277587890625	895.181396484375	-650.8525390625	-833.9326171875	879.3131713867188	-722.5289306640625	-850.1427612304688	1008.821838378906	-726.9324340820312	-815.0528564453125	726.0694580078125	-651.54443359375	-828.208740234375	797.95947265625	-718.1950073242188	-802.7769775390625	805.4081420898438	-651.1614379882812	-1101.452514648438	1422.831665039062	-306.2170104980469	-1149.645629882812	1361.588745117188	-244.2042694091797	-1160.981079101562	1071.854858398438	-192.2471923828125	-1198.8798828125	1055.198608398438	-245.9810485839844	-1041.494384765625	876.0689086914062	-209.1391448974609	-1120.861694335938	855.9752197265625	-175.3213958740234	-1157.852172851562	1013.033325195312	-183.4988708496094	-1035.671875	716.6759033203125	-206.1873016357422	-1026.428344726562	776.1937866210938	-195.2560729980469	-1099.053100585938	770.3397216796875	-173.48388671875	-1075.427612304688	1644.210205078125	-379.3641052246094	-881.4957275390625	1676.596801757812	-446.2493896484375	-948.5401611328125	1674.483154296875	-333.3751831054688	-998.9498291015625	1650.141723632812	-540.51171875	-914.5110473632812	859.1759033203125	-606.5931396484375	-1152.546752929688	863.1522827148438	-286.9434814453125	-1026.896362304688	900.4453735351562	-281.893310546875	-871.775390625	897.2583618164062	-487.8843688964844	-941.124755859375	435.6029968261719	-557.9695434570312	-906.6201171875	588.1875	-570.5994262695312	-1045.506469726562	33.68276977539062	-596.83837890625	-960.1085205078125	280.9463500976562	-570.7011108398438	-901.672607421875	42.85359191894531	-411.5407104492188	-976.9226684570312	50.55759429931641	-432.9037780761719	-911.8067626953125	43.76286315917969	-526.8097534179688	-1118.505615234375	38.20624542236328	-587.82958984375	-1128.81689453125	465.6055297851562	-312.1660461425781	-1125.345092773438	725.309326171875	-260.2310180664062	-1187.45068359375	43.08502197265625	-351.6730041503906	-1148.355102539062	320.3890075683594	-307.8900451660156	-980.0179443359375	48.55794525146484	-286.7276611328125	-1016.434204101562	54.82733154296875	-347.8148498535156	-1085.068725585938	47.2895622253418	-263.522216796875	-1222.32861328125	35.85123062133789	-424.7403564453125	
73	0.72	-1165.197387695312	970.414306640625	-466.9534606933594	-1088.126342773438	968.7955932617188	-585.4088745117188	-1125.561889648438	1060.644897460938	-508.0908813476562	-888.14111328125	1256.063598632812	-386.22412109375	-1143.570922851562	1183.550170898438	-523.0626220703125	-1091.932495117188	1451.4814453125	-481.5368041992188	-919.431396484375	1369.285400390625	-408.400634765625	-1190.527954101562	1332.401000976562	-425.4940490722656	-1074.979125976562	1405.14013671875	-583.656494140625	-946.1045532226562	1425.948120117188	-606.1329956054688	-910.543701171875	1309.428955078125	-701.0799560546875	-874.3408203125	1095.7421875	-727.2932739257812	-975.5477294921875	1079.00927734375	-710.5546875	-821.004638671875	895.1688842773438	-650.6134643554688	-833.0341796875	879.345947265625	-722.2750854492188	-849.2418212890625	1008.833862304688	-726.6530151367188	-814.1250610351562	726.06982421875	-651.3237915039062	-827.2362670898438	797.97314453125	-717.9754028320312	-801.9431762695312	805.4274291992188	-650.8955078125	-1100.812377929688	1422.848266601562	-305.9858703613281	-1148.984741210938	1361.610595703125	-243.9796142578125	-1160.059692382812	1071.841552734375	-191.9696044921875	-1198.015014648438	1055.09228515625	-245.6200256347656	-1040.069213867188	876.4025268554688	-208.9084777832031	-1119.36474609375	856.0897827148438	-175.0131225585938	-1156.791015625	1013.029541015625	-183.1933746337891	-1033.787231445312	717.035400390625	-205.8761749267578	-1024.686401367188	776.5624389648438	-195.0172119140625	-1097.314331054688	770.5151977539062	-173.1348724365234	-1074.776611328125	1644.147338867188	-379.1409912109375	-880.73486328125	1676.608764648438	-445.9817504882812	-947.9083862304688	1674.47802734375	-333.1237182617188	-998.2256469726562	1650.082763671875	-540.2651977539062	-914.2647705078125	859.1436767578125	-606.343505859375	-1152.443481445312	863.1471557617188	-286.8091430664062	-1026.919189453125	900.333251953125	-281.7867431640625	-871.62255859375	897.1513061523438	-487.7230224609375	-940.8859252929688	435.5838317871094	-557.8116455078125	-906.3606567382812	588.1576538085938	-570.3397216796875	-1045.46044921875	33.71881484985352	-596.81005859375	-960.034912109375	280.8448486328125	-570.5987548828125	-901.6738891601562	42.83728790283203	-411.5173034667969	-976.9273681640625	50.55187606811523	-432.8829040527344	-911.8042602539062	43.77842712402344	-526.8019409179688	-1118.501831054688	38.24665069580078	-587.80126953125	-1128.813232421875	465.5927124023438	-312.1101379394531	-1125.312744140625	725.2954711914062	-260.0874938964844	-1187.447265625	43.08086013793945	-351.6707153320312	-1148.34521484375	320.3827514648438	-307.8628540039062	-980.01318359375	48.55079650878906	-286.7253112792969	-1016.4287109375	54.82729339599609	-347.7936401367188	-1085.078857421875	47.28261947631836	-263.5101623535156	-1222.330200195312	35.8607292175293	-424.7447814941406	
